<?xml version="1.0" encoding="utf-8"?>
<!-- Generator: Adobe Illustrator 27.3.1, SVG Export Plug-In . SVG Version: 6.00 Build 0)  -->
<svg version="1.1" id="Layer_1" xmlns="http://www.w3.org/2000/svg" xmlns:xlink="http://www.w3.org/1999/xlink" x="0px" y="0px"
	 viewBox="0 0 184.25 184.25" style="enable-background:new 0 0 184.25 184.25;" xml:space="preserve">
<style type="text/css">
	.st0{clip-path:url(#SVGID_00000179645472100899522590000000025896470782702525_);}
	.st1{clip-path:url(#SVGID_00000127766351263783707000000007563507169413765277_);fill:#FFF1E1;}
	.st2{clip-path:url(#SVGID_00000035495044574186838020000017231122474491066303_);}
	.st3{clip-path:url(#SVGID_00000142866885311565147310000018090503687045618335_);}
	
		.st4{clip-path:url(#SVGID_00000180349262225504601780000002379278222845865356_);fill:url(#SVGID_00000026126120512727098310000005022858820684657325_);}
	.st5{clip-path:url(#SVGID_00000142143662908744121410000004902636975568900739_);fill:#000001;}
	
		.st6{clip-path:url(#SVGID_00000142143662908744121410000004902636975568900739_);fill:none;stroke:#000001;stroke-width:2.758;stroke-miterlimit:10;}
	.st7{clip-path:url(#SVGID_00000142143662908744121410000004902636975568900739_);fill:#E97F9D;}
	.st8{clip-path:url(#SVGID_00000142143662908744121410000004902636975568900739_);fill:#FFFFFF;}
	.st9{clip-path:url(#SVGID_00000166671824541993968740000001796300977089672635_);}
	.st10{clip-path:url(#SVGID_00000088102513827569879650000007054764145814388125_);fill:#FFF1E1;}
	.st11{clip-path:url(#SVGID_00000166671824541993968740000001796300977089672635_);fill:none;stroke:#F15D48;stroke-width:0.25;}
</style>
<g>
	<g>
		<defs>
			<rect id="SVGID_00000165914384188315677920000000547248298990305665_" width="184.25" height="184.25"/>
		</defs>
		<clipPath id="SVGID_00000177449663290911849380000000285655153410246585_">
			<use xlink:href="#SVGID_00000165914384188315677920000000547248298990305665_"  style="overflow:visible;"/>
		</clipPath>
		<g style="clip-path:url(#SVGID_00000177449663290911849380000000285655153410246585_);">
			<defs>
				<rect id="SVGID_00000129903818960221982970000001756504802234166968_" width="184.25" height="184.25"/>
			</defs>
			<clipPath id="SVGID_00000092449533706929020030000012580854552306019217_">
				<use xlink:href="#SVGID_00000129903818960221982970000001756504802234166968_"  style="overflow:visible;"/>
			</clipPath>
			<g style="clip-path:url(#SVGID_00000092449533706929020030000012580854552306019217_);">
				<defs>
					<rect id="SVGID_00000170255317430473115560000001435006964029791142_" x="-7.09" y="-7.09" width="193.46" height="193.46"/>
				</defs>
				<clipPath id="SVGID_00000076578090476622861080000010558617459471708304_">
					<use xlink:href="#SVGID_00000170255317430473115560000001435006964029791142_"  style="overflow:visible;"/>
				</clipPath>
				
					<linearGradient id="SVGID_00000067209203657455889080000010406033969802544034_" gradientUnits="userSpaceOnUse" x1="203.7709" y1="184.7114" x2="204.7709" y2="184.7114" gradientTransform="matrix(212.2564 -212.2564 -212.2564 -212.2564 -4061.9651 82653.6328)">
					<stop  offset="0" style="stop-color:#F8B6BF"/>
					<stop  offset="0.1095" style="stop-color:#F8B6BF"/>
					<stop  offset="0.833" style="stop-color:#FFF1E2"/>
					<stop  offset="1" style="stop-color:#FFF1E2"/>
				</linearGradient>
				
					<polygon style="clip-path:url(#SVGID_00000076578090476622861080000010558617459471708304_);fill:url(#SVGID_00000067209203657455889080000010406033969802544034_);" points="
					-103.82,89.65 89.65,-103.82 283.11,89.65 89.65,283.11 				"/>
			</g>
			<g style="clip-path:url(#SVGID_00000092449533706929020030000012580854552306019217_);">
				<defs>
					<rect id="SVGID_00000004512800974305223180000018038507262917834668_" x="22.3" y="17.45" width="139.66" height="138.29"/>
				</defs>
				<clipPath id="SVGID_00000078724643691572811860000013535633457443250852_">
					<use xlink:href="#SVGID_00000004512800974305223180000018038507262917834668_"  style="overflow:visible;"/>
				</clipPath>
				<path style="clip-path:url(#SVGID_00000078724643691572811860000013535633457443250852_);fill:#000001;" d="M125.54,37.08
					L80.22,26.22c-7.06-1.69-14.16,2.66-15.85,9.72l-5.88,24.51c-1.69,7.06,2.66,14.16,9.72,15.85l11.47,2.75l8.51,13.88l13.88-8.51
					l11.47,2.75c7.06,1.69,14.16-2.66,15.85-9.72l5.88-24.51C136.96,45.87,132.61,38.77,125.54,37.08"/>
				
					<path style="clip-path:url(#SVGID_00000078724643691572811860000013535633457443250852_);fill:none;stroke:#000001;stroke-width:2.758;stroke-miterlimit:10;" d="
					M125.54,37.08L80.22,26.22c-7.06-1.69-14.16,2.66-15.85,9.72l-5.88,24.51c-1.69,7.06,2.66,14.16,9.72,15.85l11.47,2.75
					l8.51,13.88l13.88-8.51l11.47,2.75c7.06,1.69,14.16-2.66,15.85-9.72l5.88-24.51C136.96,45.87,132.61,38.77,125.54,37.08z"/>
				<path style="clip-path:url(#SVGID_00000078724643691572811860000013535633457443250852_);fill:#E97F9D;" d="M123.08,33.07
					L77.76,22.21c-7.06-1.69-14.16,2.66-15.85,9.72l-5.88,24.51c-1.69,7.06,2.66,14.16,9.72,15.85l11.47,2.75l8.51,13.88l13.88-8.51
					l11.47,2.75c7.06,1.69,14.16-2.66,15.85-9.72l5.88-24.51C134.5,41.86,130.15,34.76,123.08,33.07"/>
				
					<path style="clip-path:url(#SVGID_00000078724643691572811860000013535633457443250852_);fill:none;stroke:#000001;stroke-width:2.758;stroke-miterlimit:10;" d="
					M123.08,33.07L77.76,22.21c-7.06-1.69-14.16,2.66-15.85,9.72l-5.88,24.51c-1.69,7.06,2.66,14.16,9.72,15.85l11.47,2.75
					l8.51,13.88l13.88-8.51l11.47,2.75c7.06,1.69,14.16-2.66,15.85-9.72l5.88-24.51C134.5,41.86,130.15,34.76,123.08,33.07z"/>
				<path style="clip-path:url(#SVGID_00000078724643691572811860000013535633457443250852_);fill:#FFFFFF;" d="M104.86,43.75
					c-3.06-0.73-6.28,0.04-8.67,2.08l-0.44,0.38l-0.22-0.54c-1.21-2.9-3.73-5.05-6.78-5.79c-6.88-1.65-12.29,5.87-8.55,11.87
					L90.5,68.3l16.6-10.09C113.15,54.56,111.73,45.4,104.86,43.75"/>
				
					<path style="clip-path:url(#SVGID_00000078724643691572811860000013535633457443250852_);fill:none;stroke:#000001;stroke-width:2.758;stroke-miterlimit:10;" d="
					M104.86,43.75c-3.06-0.73-6.28,0.04-8.67,2.08l-0.44,0.38l-0.22-0.54c-1.21-2.9-3.73-5.05-6.78-5.79
					c-6.88-1.65-12.29,5.87-8.55,11.87L90.5,68.3l16.6-10.09C113.15,54.56,111.73,45.4,104.86,43.75z"/>
				<path style="clip-path:url(#SVGID_00000078724643691572811860000013535633457443250852_);fill:#000001;" d="M116.99,130.32h1.35
					c0.21,0,0.41-0.03,0.61-0.06c0.53-0.07,1.03-0.25,1.51-0.52c0.32-0.18,0.63-0.38,0.93-0.65c0.31-0.28,0.58-0.61,0.82-0.97
					c0.47-0.69,0.82-1.5,1.03-2.48l0.13-0.62l0.14-0.65c0.06-0.28,0.09-0.53,0.12-0.79c0.06-0.5,0.05-0.96-0.01-1.38
					c-0.08-0.49-0.23-0.93-0.47-1.29c-0.57-0.81-1.41-1.22-2.53-1.22h-1.35c-0.4,0-0.68,0.07-0.86,0.2
					c-0.17,0.13-0.3,0.39-0.38,0.76l-1.87,8.69c-0.08,0.37-0.06,0.63,0.05,0.76C116.33,130.26,116.59,130.32,116.99,130.32"/>
				<path style="clip-path:url(#SVGID_00000078724643691572811860000013535633457443250852_);fill:#000001;" d="M160.97,113.35
					c-0.29-0.36-2.15-2.13-2.46-2.46c-0.43-0.45-1.29-1.3-2.94-1.3h-16.47c-2.04,0-3.63,1.27-4.05,3.23l-0.54,2.53
					c-0.4-0.39-3.83-5.76-11.33-5.76h-11.05c-1.4,0-2.59,0.61-3.33,1.63c-0.08-0.13-0.16-0.25-0.23-0.34
					c-0.39-0.48-1.29-1.3-2.94-1.3h-6.55c-0.92,0-1.74,0.27-2.41,0.74c-0.59-0.46-1.35-0.74-2.2-0.74h-6.64
					c-1.81,0-3.31,1.01-4.03,2.69l-0.01,0.03l-0.01,0.03l-0.57,1.44c-0.26-0.44-2.87-3.09-3.31-3.43c-0.67-0.51-1.52-0.76-2.6-0.76
					h-3.32c-0.95,0-1.73,0.19-2.4,0.57c-0.72,0.41-1.31,1.08-1.75,1.99l-0.01,0.03l-0.01,0.03l-0.69,1.49c0,0-2.58-2.7-2.88-3.01
					c-0.68-0.7-1.64-1.09-2.69-1.09h-6.33c-2.03,0-3.51,1.45-3.64,3.47c-2.05-2.64-5.36-3.98-9.85-3.98c-4.07,0-7.6,1.12-10.49,3.33
					c-2.94,2.24-4.82,5.17-5.57,8.69c-0.46,2.13-0.37,4.19,0.26,6.12c0.6,1.87,1.55,3.47,2.81,4.76c0.62,0.63,1.29,1.28,1.99,1.92
					c0.15,0.18,0.3,0.37,0.46,0.53c0.75,0.77,1.58,1.55,2.44,2.33c-0.54-0.36-1.37-0.71-2.41-0.71h-6.44
					c-1.77,0-3.18,1.21-3.58,3.08c-0.89,4.34-0.07,7.91,2.43,10.61c0.5,0.54,1.05,1.01,1.63,1.44c0.25,0.35,0.53,0.69,0.83,1.02
					c2.41,2.61,5.82,3.93,10.14,3.93c1.65,0,3.35-0.24,5.06-0.71c1.68-0.46,3.35-1.15,4.96-2.06c1.73-0.97,3.26-2.3,4.55-3.96
					c0.24-0.31,0.45-0.63,0.67-0.96l0,0.91c0,2.26,3.72,5.46,3.72,5.46c0.67,0.53,1.54,0.8,2.66,0.8h4.27
					c1.81,0,3.31-0.94,4.09-2.57l0.02-0.03l0.01-0.03l1.64-3.64l0.01,0.49c0,3.65,3.79,5.78,6.38,5.78h4.26
					c0.99,0,1.85-0.12,2.46-0.6c1.48-1.16,4.86-10.47,4.86-10.47l-0.51,4.23c-0.41,3.75,2.58,6.84,6.05,6.84h6.55
					c1.41,0,2.59-0.61,3.33-1.63c0.08,0.13,0.16,0.24,0.23,0.34c0.39,0.48,1.29,1.3,2.94,1.3h6.55c2.04,0,3.63-1.27,4.05-3.23
					l1.95-9.06h1.14c3.25,0,6.25-0.89,8.97-2.62l-1.73,8.07c-0.34,1.57,0.26,2.61,0.65,3.09c0,0,2.52,3.75,5.39,3.75h16.47
					c2.04,0,3.63-1.27,4.05-3.23l1.12-5.23c0.73-3.54-2.69-7.13-6.05-7.13h-2.4l0.05,0.04h6.56c2.04,0,3.63-1.27,4.05-3.24
					l1.12-5.23c0.34-1.57-0.26-2.61-0.65-3.09c-0.29-0.36-3.37-3.4-4.4-3.64h3.14c2.04,0,3.62-1.27,4.05-3.23l1.12-5.24
					C161.96,114.87,161.36,113.83,160.97,113.35 M50.33,140.59c-0.38,1.76-1.1,3.33-2.18,4.7c-1.07,1.37-2.31,2.46-3.73,3.25
					c-1.42,0.79-2.87,1.4-4.34,1.8c-1.48,0.41-2.92,0.61-4.33,0.61c-2.61,0-4.77-0.56-6.48-1.67c-0.6-0.39-1.15-0.85-1.64-1.38
					c-0.28-0.31-0.53-0.63-0.75-0.97c-0.94-1.42-1.36-3.12-1.27-5.09c0.03-0.67,0.11-1.37,0.26-2.11c0.13-0.61,0.43-0.91,0.9-0.91
					h1.06h5.38c0.61,0,0.88,0.27,0.8,0.81c-0.01,0.09-0.01,0.18-0.01,0.27c-0.03,0.47-0.01,0.93,0.07,1.37
					c0.09,0.47,0.24,0.92,0.46,1.35c0.39,0.75,1.08,1.17,2.05,1.31c0.21,0.03,0.42,0.06,0.67,0.06c0.26,0,0.5-0.02,0.75-0.06
					c0.47-0.07,0.91-0.22,1.32-0.43c0.17-0.09,0.33-0.18,0.49-0.3c0.54-0.39,0.96-0.88,1.26-1.46c0.1-0.2,0.2-0.42,0.27-0.64
					c0.12-0.34,0.18-0.68,0.2-1.02c0.04-0.63-0.08-1.26-0.39-1.87c-0.11-0.21-0.24-0.42-0.37-0.63c-0.46-0.7-1.06-1.35-1.81-1.94
					c-0.97-0.76-2.02-1.63-3.15-2.62c-0.4-0.35-0.78-0.7-1.15-1.04c-0.69-0.63-1.36-1.27-1.98-1.9c-0.46-0.46-0.85-0.99-1.2-1.56
					c-0.39-0.64-0.71-1.35-0.96-2.12c-0.3-0.93-0.42-1.89-0.39-2.89c0.02-0.59,0.07-1.19,0.21-1.81c0.62-2.88,2.13-5.24,4.55-7.09
					c2.16-1.65,4.74-2.56,7.74-2.73c0.36-0.02,0.72-0.04,1.09-0.04c2.56,0,4.58,0.5,6.09,1.48c0.64,0.42,1.19,0.91,1.64,1.5
					c0.19,0.25,0.36,0.51,0.52,0.78c1.08,1.86,1.36,4.17,0.83,6.92c-0.13,0.61-0.43,0.92-0.9,0.92h-4.83h-1.39h-0.22
					c-0.58,0-0.84-0.25-0.8-0.73c0-0.03-0.01-0.05,0-0.09c0.03-0.48,0.02-0.9-0.01-1.28c-0.14-1.64-0.87-2.48-2.22-2.48
					c-0.9,0-1.66,0.3-2.28,0.89c-0.61,0.59-0.93,1.28-0.96,2.06c0,0.85,0.45,1.77,1.36,2.77c0.67,0.74,1.43,1.49,2.28,2.24
					c0.3,0.26,0.6,0.53,0.92,0.79c1.22,1.02,2.42,2.12,3.6,3.3c0.2,0.21,0.39,0.43,0.58,0.65c0.89,1.05,1.59,2.27,2.1,3.67
					C50.63,136.89,50.73,138.69,50.33,140.59 M53.48,133.58c-0.51-0.78-1.08-1.51-1.73-2.17c-0.61-0.62-1.24-1.21-1.87-1.79
					c-0.19-0.22-0.38-0.45-0.59-0.66c-0.12-0.12-0.23-0.23-0.35-0.34h4.55L53.48,133.58z M79.66,149.41
					c-0.16,0.41-0.35,0.69-0.58,0.82c-0.23,0.14-0.57,0.21-1.04,0.21h-3.03h-1.24c-0.05,0-0.08-0.01-0.13-0.02
					c-0.66-0.04-1.02-0.37-1.05-1l-0.21-9.02l-0.07-3.17l-0.15-6.15c-0.04-0.17-0.13-0.25-0.27-0.25c-0.14,0-0.27,0.09-0.38,0.25
					l-8.26,18.34c-0.33,0.68-0.87,1.01-1.62,1.01h-2.99h-1.28c-0.04,0-0.06-0.01-0.1-0.01c-0.41-0.01-0.71-0.07-0.86-0.19
					c-0.17-0.13-0.24-0.41-0.23-0.81l0.07-21.35l0.01-1.93l0.02-7.37l0.01-2.91l0.01-1.58l0-0.94c0-0.68,0.31-1.02,0.93-1.02h0.98
					h5.35c0.66,0,0.98,0.37,0.97,1.09c0,0.01,0,0.02,0,0.04l-0.05,1.33l-0.55,15.33c0.01,0.11,0.11,0.17,0.3,0.18
					c0.01,0,0.02,0,0.04,0c0.17,0,0.28-0.08,0.35-0.24l2.02-4.39l1.49-3.23l1.49-3.23l2.7-5.86c0.2-0.41,0.42-0.68,0.65-0.81
					c0.24-0.13,0.58-0.2,1.03-0.2h0.69h2.63c0.45,0,0.76,0.07,0.94,0.2c0.18,0.14,0.28,0.41,0.31,0.81l0,0.07l0.04,1.37l0.42,15.27
					c0.02,0.1,0.05,0.17,0.1,0.2c0.05,0.03,0.11,0.05,0.19,0.05c0.07,0,0.15-0.02,0.24-0.08c0.09-0.05,0.14-0.13,0.16-0.23
					l1.59-3.99l1.28-3.22l1.28-3.22l2.48-6.23c0.29-0.68,0.79-1.02,1.5-1.02h0.9h5.74c0.35,0,0.55,0.11,0.62,0.3
					c-0.02,0.07-0.04,0.12-0.06,0.19l-0.13,0.59l-0.06,0.28l-0.46,1.09L79.66,149.41z M98.81,149.38c-0.15,0.71-0.61,1.07-1.37,1.07
					h-4.71h-1.4h-0.44c-0.47,0-0.75-0.15-0.87-0.43c-0.07-0.17-0.1-0.37-0.04-0.64l3.91-18.19l1.52-7.08l1.52-7.09l0.45-2.1
					l0.08-0.38l0.21-0.99l0.03-0.14c0.03-0.15,0.09-0.28,0.15-0.4c0.15-0.29,0.37-0.49,0.69-0.59c0.16-0.05,0.33-0.08,0.53-0.08
					h0.89h5.66c0.76,0,1.06,0.35,0.91,1.07l0,0.02l-0.29,1.37L98.81,149.38z M126.79,134.77c-2.7,2.25-5.76,3.38-9.15,3.38h-2.33
					c-0.4,0-0.68,0.07-0.86,0.2c-0.17,0.13-0.3,0.39-0.38,0.76l-2.2,10.26c-0.15,0.71-0.61,1.07-1.37,1.07h-4.71h-1.4h-0.02h-0.43
					c-0.47,0-0.75-0.15-0.87-0.43c0-0.01-0.01-0.02-0.01-0.03c-0.06-0.16-0.09-0.36-0.03-0.61l7.33-34.14l0.39-1.83
					c0.02-0.09,0.06-0.17,0.09-0.25c0.2-0.53,0.62-0.82,1.28-0.82h0.9h10.15c2.21,0,4.07,0.48,5.58,1.43
					c0.81,0.51,1.52,1.14,2.12,1.92c0.15,0.19,0.27,0.39,0.4,0.58c1.4,2.15,1.77,4.85,1.07,8.1l-0.36,1.68
					C131.23,129.61,129.49,132.52,126.79,134.77 M156.48,113.41l0,0.02l-0.29,1.37l-0.82,3.84c-0.15,0.71-0.61,1.07-1.37,1.07h-7.75
					c-0.4,0-0.68,0.07-0.86,0.2c-0.17,0.13-0.3,0.39-0.38,0.76l-1.27,5.89c-0.08,0.37-0.06,0.63,0.05,0.76
					c0.11,0.14,0.37,0.2,0.77,0.2h1.95h1.4h4.39c0.76,0,1.06,0.36,0.91,1.07l0,0.02l-0.29,1.37l-0.82,3.84
					c-0.15,0.71-0.61,1.07-1.37,1.07h-7.74c-0.4,0-0.68,0.07-0.86,0.21c-0.17,0.13-0.3,0.39-0.38,0.76l-1.34,6.25
					c-0.08,0.37-0.06,0.63,0.05,0.76c0.11,0.14,0.37,0.2,0.77,0.2h1.95h1.4h4.39c0.76,0,1.06,0.36,0.91,1.07l0,0.02l-0.29,1.37
					l-0.83,3.84c-0.15,0.71-0.61,1.07-1.37,1.07h-14.62h-1.4h-0.45c-0.47,0-0.75-0.15-0.86-0.43c-0.07-0.17-0.1-0.37-0.04-0.64
					l2.46-11.43l0.62-2.89l3.06-14.24l0.53-2.47l1.06-4.95c0.15-0.71,0.61-1.07,1.37-1.07h0.9h15.57
					C156.33,112.34,156.63,112.69,156.48,113.41"/>
				<path style="clip-path:url(#SVGID_00000078724643691572811860000013535633457443250852_);fill:#FFFFFF;" d="M51.45,114.8
					c-0.45-0.59-1-1.08-1.64-1.49c-1.51-0.98-3.53-1.48-6.09-1.48c-0.37,0-0.73,0.02-1.09,0.04c-3,0.18-5.58,1.08-7.74,2.73
					c-2.42,1.85-3.94,4.21-4.55,7.09c-0.13,0.62-0.19,1.22-0.21,1.81c-0.03,1,0.09,1.96,0.39,2.89c0.25,0.78,0.58,1.48,0.96,2.12
					c0.35,0.57,0.74,1.1,1.2,1.56c0.62,0.64,1.29,1.27,1.98,1.9c0.38,0.35,0.75,0.7,1.15,1.04c1.13,0.98,2.18,1.86,3.15,2.62
					c0.75,0.59,1.35,1.24,1.81,1.94c0.13,0.21,0.26,0.41,0.37,0.63c0.31,0.62,0.43,1.24,0.39,1.87c-0.02,0.34-0.08,0.68-0.2,1.02
					c-0.08,0.23-0.17,0.44-0.27,0.64c-0.3,0.59-0.72,1.07-1.26,1.47c-0.16,0.11-0.32,0.21-0.49,0.3c-0.41,0.22-0.85,0.36-1.32,0.43
					c-0.24,0.04-0.49,0.06-0.75,0.06c-0.24,0-0.45-0.03-0.67-0.06c-0.97-0.14-1.66-0.56-2.05-1.31c-0.22-0.43-0.37-0.88-0.46-1.35
					c-0.08-0.44-0.1-0.9-0.07-1.37c0.01-0.09,0-0.18,0.01-0.27c0.08-0.54-0.19-0.81-0.8-0.81h-5.38h-1.06c-0.47,0-0.77,0.3-0.9,0.91
					c-0.15,0.74-0.23,1.44-0.26,2.11c-0.09,1.98,0.33,3.67,1.27,5.09c0.22,0.34,0.47,0.67,0.75,0.97c0.49,0.53,1.04,0.99,1.64,1.38
					c1.71,1.11,3.86,1.67,6.48,1.67c1.41,0,2.85-0.2,4.33-0.61c1.48-0.41,2.93-1.01,4.34-1.8c1.42-0.8,2.66-1.88,3.73-3.25
					c1.07-1.37,1.8-2.94,2.17-4.7c0.41-1.89,0.31-3.69-0.31-5.39c-0.51-1.4-1.21-2.61-2.1-3.67c-0.19-0.22-0.37-0.45-0.58-0.65
					c-1.17-1.18-2.37-2.29-3.6-3.3c-0.32-0.26-0.62-0.53-0.92-0.79c-0.85-0.75-1.61-1.49-2.28-2.24c-0.91-1-1.36-1.92-1.36-2.77
					c0.02-0.78,0.34-1.46,0.96-2.06c0.61-0.59,1.37-0.89,2.28-0.89c1.34,0,2.07,0.84,2.22,2.48c0.03,0.39,0.04,0.8,0.01,1.28
					c-0.01,0.03,0,0.06,0,0.09c-0.03,0.48,0.22,0.73,0.8,0.73h0.22h1.4h4.83c0.47,0,0.77-0.3,0.9-0.92
					c0.53-2.75,0.25-5.06-0.83-6.92C51.81,115.31,51.64,115.05,51.45,114.8"/>
				<path style="clip-path:url(#SVGID_00000078724643691572811860000013535633457443250852_);fill:#FFFFFF;" d="M94.84,113.7
					l0.06-0.28l0.13-0.59c0.01-0.07,0.04-0.12,0.06-0.19c-0.07-0.2-0.27-0.3-0.62-0.3h-5.74h-0.9c-0.71,0-1.22,0.34-1.5,1.02
					l-2.48,6.23l-1.28,3.22l-1.28,3.22l-1.59,4c-0.02,0.1-0.07,0.18-0.16,0.23c-0.09,0.05-0.17,0.08-0.24,0.08
					c-0.08,0-0.14-0.02-0.19-0.05c-0.05-0.03-0.08-0.1-0.1-0.2l-0.42-15.27l-0.04-1.37l0-0.07c-0.03-0.41-0.13-0.68-0.3-0.81
					c-0.18-0.14-0.49-0.2-0.94-0.2h-2.63h-0.69c-0.45,0-0.79,0.07-1.03,0.2c-0.24,0.14-0.45,0.4-0.65,0.81l-2.7,5.86l-1.49,3.23
					l-1.49,3.23l-2.02,4.39c-0.07,0.16-0.18,0.24-0.35,0.24c-0.01,0-0.02,0-0.04,0c-0.19-0.01-0.28-0.07-0.3-0.18l0.55-15.33
					l0.05-1.33c0-0.01,0-0.02,0-0.04c0.01-0.72-0.31-1.09-0.97-1.09h-5.35h-0.98c-0.62,0-0.93,0.34-0.93,1.02l0,0.94l0,1.58
					l-0.01,2.91l-0.02,7.37l-0.01,1.93l-0.06,21.35c-0.01,0.41,0.06,0.68,0.23,0.81c0.15,0.12,0.45,0.18,0.86,0.19
					c0.04,0,0.06,0.01,0.1,0.01h1.27h2.99c0.76,0,1.29-0.34,1.62-1.01l8.26-18.34c0.11-0.17,0.23-0.25,0.38-0.25
					c0.14,0,0.23,0.09,0.27,0.25l0.15,6.15l0.07,3.17l0.21,9.02c0.03,0.63,0.39,0.96,1.05,1c0.05,0,0.08,0.02,0.13,0.02h1.24h3.03
					c0.47,0,0.81-0.07,1.04-0.2c0.23-0.14,0.42-0.41,0.58-0.83l14.71-34.62L94.84,113.7z"/>
				<path style="clip-path:url(#SVGID_00000078724643691572811860000013535633457443250852_);fill:#FFFFFF;" d="M106.53,113.42
					l0-0.02c0.15-0.71-0.15-1.07-0.91-1.07h-5.66h-0.9c-0.2,0-0.38,0.03-0.53,0.08c-0.31,0.1-0.54,0.3-0.69,0.59
					c-0.06,0.12-0.11,0.25-0.15,0.4l-0.03,0.14l-0.21,0.99l-0.08,0.38l-0.45,2.1l-1.52,7.08l-1.52,7.08l-3.91,18.19
					c-0.06,0.27-0.03,0.47,0.04,0.64c0.12,0.28,0.39,0.43,0.86,0.43h0.44h1.4h4.71c0.76,0,1.21-0.36,1.37-1.07l7.43-34.58
					L106.53,113.42z"/>
				<path style="clip-path:url(#SVGID_00000078724643691572811860000013535633457443250852_);fill:#FFFFFF;" d="M132.35,124.38
					c0.7-3.26,0.33-5.95-1.07-8.1c-0.13-0.2-0.25-0.4-0.4-0.58c-0.61-0.78-1.32-1.41-2.12-1.92c-1.51-0.95-3.37-1.44-5.58-1.44
					h-10.15h-0.89c-0.66,0-1.07,0.28-1.28,0.82c-0.03,0.08-0.07,0.15-0.09,0.25l-0.39,1.83l-7.33,34.14
					c-0.05,0.25-0.03,0.44,0.03,0.61c0,0.01,0.01,0.02,0.01,0.03c0.12,0.28,0.39,0.43,0.87,0.43h0.43h0.02h1.4h4.71
					c0.76,0,1.22-0.35,1.37-1.07l2.2-10.26c0.08-0.37,0.21-0.63,0.38-0.76c0.17-0.13,0.46-0.2,0.86-0.2h2.33
					c3.39,0,6.44-1.13,9.15-3.38c2.7-2.25,4.44-5.16,5.2-8.71L132.35,124.38z M116.99,130.32c-0.4,0-0.66-0.07-0.77-0.2
					c-0.12-0.13-0.13-0.39-0.05-0.76l1.87-8.69c0.08-0.37,0.21-0.63,0.38-0.76c0.17-0.13,0.46-0.2,0.86-0.2h1.35
					c1.12,0,1.96,0.41,2.53,1.22c0.25,0.36,0.4,0.8,0.47,1.29c0.06,0.41,0.07,0.87,0.01,1.38c-0.03,0.25-0.06,0.51-0.12,0.79
					l-0.14,0.65l-0.13,0.62c-0.21,0.98-0.56,1.8-1.03,2.48c-0.24,0.36-0.51,0.69-0.82,0.97c-0.3,0.26-0.61,0.47-0.93,0.65
					c-0.48,0.27-0.98,0.44-1.51,0.52c-0.2,0.03-0.4,0.06-0.61,0.06H116.99z"/>
				<path style="clip-path:url(#SVGID_00000078724643691572811860000013535633457443250852_);fill:#FFFFFF;" d="M155.57,112.34H140
					h-0.9c-0.76,0-1.21,0.36-1.37,1.07l-1.06,4.95l-0.53,2.47l-3.06,14.24l-0.62,2.89l-2.46,11.43c-0.06,0.27-0.03,0.47,0.04,0.63
					c0.12,0.28,0.39,0.43,0.87,0.43h0.44h1.4h14.62c0.76,0,1.22-0.36,1.37-1.07l0.83-3.85l0.29-1.37l0-0.02
					c0.15-0.71-0.15-1.07-0.91-1.07h-4.39h-1.4h-1.95c-0.4,0-0.66-0.07-0.77-0.2c-0.11-0.13-0.13-0.39-0.05-0.76l1.34-6.25
					c0.08-0.37,0.21-0.63,0.38-0.76c0.17-0.14,0.46-0.2,0.86-0.2h7.75c0.76,0,1.21-0.36,1.37-1.07l0.82-3.84l0.29-1.37l0-0.02
					c0.15-0.71-0.15-1.07-0.91-1.07h-4.39h-1.4h-1.95c-0.4,0-0.65-0.07-0.77-0.2c-0.12-0.14-0.13-0.39-0.05-0.76l1.27-5.89
					c0.08-0.37,0.21-0.63,0.38-0.76c0.17-0.13,0.46-0.2,0.86-0.2h7.75c0.76,0,1.21-0.36,1.37-1.07l0.82-3.84l0.29-1.37l0-0.02
					C156.63,112.69,156.33,112.34,155.57,112.34"/>
			</g>
		</g>
	</g>
</g>
</svg>
